<mxfile host="app.diagrams.net" modified="2022-10-31T06:29:05.340Z" agent="5.0 (Windows NT 10.0; Win64; x64) AppleWebKit/537.36 (KHTML, like Gecko) Chrome/106.0.0.0 Safari/537.36" etag="rntIYrE33ycV59YaOun-" version="20.5.1" type="github">
  <diagram id="tWKk6uHT_sZjGpwcs3K3" name="Page-1">
    <mxGraphModel dx="1038" dy="571" grid="1" gridSize="10" guides="1" tooltips="1" connect="1" arrows="1" fold="1" page="1" pageScale="1" pageWidth="850" pageHeight="1100" math="0" shadow="0">
      <root>
        <mxCell id="0" />
        <mxCell id="1" parent="0" />
        <mxCell id="fKs3vi7BqhOC32A1Lkrl-1" value="Pool" style="swimlane;html=1;childLayout=stackLayout;horizontal=1;startSize=20;horizontalStack=0;rounded=0;shadow=0;labelBackgroundColor=none;strokeWidth=1;fontFamily=Verdana;fontSize=8;align=center;" parent="1" vertex="1">
          <mxGeometry x="40" y="40" width="680" height="770" as="geometry" />
        </mxCell>
        <mxCell id="fKs3vi7BqhOC32A1Lkrl-2" value="CGI" style="swimlane;html=1;startSize=20;horizontal=0;" parent="fKs3vi7BqhOC32A1Lkrl-1" vertex="1">
          <mxGeometry y="20" width="680" height="150" as="geometry" />
        </mxCell>
        <mxCell id="fKs3vi7BqhOC32A1Lkrl-3" style="edgeStyle=orthogonalEdgeStyle;rounded=0;html=1;labelBackgroundColor=none;startArrow=none;startFill=0;startSize=5;endArrow=classicThin;endFill=1;endSize=5;jettySize=auto;orthogonalLoop=1;strokeWidth=1;fontFamily=Verdana;fontSize=8" parent="fKs3vi7BqhOC32A1Lkrl-2" target="fKs3vi7BqhOC32A1Lkrl-5" edge="1">
          <mxGeometry relative="1" as="geometry">
            <mxPoint x="90" y="75" as="sourcePoint" />
          </mxGeometry>
        </mxCell>
        <mxCell id="fKs3vi7BqhOC32A1Lkrl-5" value="&lt;font style=&quot;font-size: 12px;&quot;&gt;&lt;b&gt;Source Code&lt;/b&gt;&lt;/font&gt;" style="rounded=1;whiteSpace=wrap;html=1;shadow=0;labelBackgroundColor=none;strokeWidth=1;fontFamily=Verdana;fontSize=8;align=center;" parent="fKs3vi7BqhOC32A1Lkrl-2" vertex="1">
          <mxGeometry x="120" y="56.49999999999997" width="70" height="37" as="geometry" />
        </mxCell>
        <mxCell id="jYvJ1Jp0yjeoyxlmzkTq-1" value="&lt;font face=&quot;Verdana&quot;&gt;&lt;b&gt;Start&lt;/b&gt;&lt;/font&gt;" style="rounded=1;whiteSpace=wrap;html=1;" vertex="1" parent="fKs3vi7BqhOC32A1Lkrl-2">
          <mxGeometry x="30" y="53.5" width="60" height="36.5" as="geometry" />
        </mxCell>
        <mxCell id="jYvJ1Jp0yjeoyxlmzkTq-2" value="&lt;b&gt;Push&lt;/b&gt;" style="text;html=1;strokeColor=none;fillColor=none;align=center;verticalAlign=middle;whiteSpace=wrap;rounded=0;fontFamily=Verdana;fontSize=12;" vertex="1" parent="fKs3vi7BqhOC32A1Lkrl-2">
          <mxGeometry x="140" y="120" width="60" height="30" as="geometry" />
        </mxCell>
        <mxCell id="fKs3vi7BqhOC32A1Lkrl-14" value="Telstra Platform" style="swimlane;html=1;startSize=20;horizontal=0;" parent="fKs3vi7BqhOC32A1Lkrl-1" vertex="1">
          <mxGeometry y="170" width="680" height="150" as="geometry" />
        </mxCell>
        <mxCell id="jYvJ1Jp0yjeoyxlmzkTq-12" style="edgeStyle=orthogonalEdgeStyle;rounded=0;orthogonalLoop=1;jettySize=auto;html=1;exitX=1;exitY=0.5;exitDx=0;exitDy=0;entryX=0;entryY=0.5;entryDx=0;entryDy=0;fontFamily=Verdana;fontSize=12;" edge="1" parent="fKs3vi7BqhOC32A1Lkrl-14" source="fKs3vi7BqhOC32A1Lkrl-16" target="jYvJ1Jp0yjeoyxlmzkTq-6">
          <mxGeometry relative="1" as="geometry" />
        </mxCell>
        <mxCell id="fKs3vi7BqhOC32A1Lkrl-16" value="&lt;font style=&quot;font-size: 12px;&quot;&gt;&lt;b&gt;Gollum&lt;/b&gt;&lt;/font&gt;" style="rounded=1;whiteSpace=wrap;html=1;shadow=0;labelBackgroundColor=none;strokeWidth=1;fontFamily=Verdana;fontSize=8;align=center;" parent="fKs3vi7BqhOC32A1Lkrl-14" vertex="1">
          <mxGeometry x="120" y="49.99999999999996" width="70" height="37" as="geometry" />
        </mxCell>
        <mxCell id="jYvJ1Jp0yjeoyxlmzkTq-14" style="edgeStyle=orthogonalEdgeStyle;rounded=0;orthogonalLoop=1;jettySize=auto;html=1;exitX=1;exitY=0.5;exitDx=0;exitDy=0;fontFamily=Verdana;fontSize=12;" edge="1" parent="fKs3vi7BqhOC32A1Lkrl-14" source="jYvJ1Jp0yjeoyxlmzkTq-6" target="jYvJ1Jp0yjeoyxlmzkTq-13">
          <mxGeometry relative="1" as="geometry" />
        </mxCell>
        <mxCell id="jYvJ1Jp0yjeoyxlmzkTq-19" style="edgeStyle=orthogonalEdgeStyle;rounded=0;orthogonalLoop=1;jettySize=auto;html=1;exitX=1;exitY=0.75;exitDx=0;exitDy=0;entryX=0;entryY=0.5;entryDx=0;entryDy=0;fontFamily=Verdana;fontSize=12;" edge="1" parent="fKs3vi7BqhOC32A1Lkrl-14" source="jYvJ1Jp0yjeoyxlmzkTq-6" target="jYvJ1Jp0yjeoyxlmzkTq-16">
          <mxGeometry relative="1" as="geometry" />
        </mxCell>
        <mxCell id="jYvJ1Jp0yjeoyxlmzkTq-20" style="edgeStyle=orthogonalEdgeStyle;rounded=0;orthogonalLoop=1;jettySize=auto;html=1;exitX=1;exitY=0.25;exitDx=0;exitDy=0;entryX=0;entryY=0.5;entryDx=0;entryDy=0;fontFamily=Verdana;fontSize=12;" edge="1" parent="fKs3vi7BqhOC32A1Lkrl-14" source="jYvJ1Jp0yjeoyxlmzkTq-6" target="jYvJ1Jp0yjeoyxlmzkTq-15">
          <mxGeometry relative="1" as="geometry" />
        </mxCell>
        <mxCell id="jYvJ1Jp0yjeoyxlmzkTq-6" value="&lt;font style=&quot;font-size: 12px;&quot;&gt;&lt;b&gt;Bamboo Source Code Sync&lt;/b&gt;&lt;/font&gt;" style="rounded=1;whiteSpace=wrap;html=1;shadow=0;labelBackgroundColor=none;strokeWidth=1;fontFamily=Verdana;fontSize=8;align=center;" vertex="1" parent="fKs3vi7BqhOC32A1Lkrl-14">
          <mxGeometry x="220" y="50" width="100" height="37" as="geometry" />
        </mxCell>
        <mxCell id="jYvJ1Jp0yjeoyxlmzkTq-13" value="&lt;font style=&quot;font-size: 12px;&quot;&gt;&lt;b&gt;GitLab&lt;/b&gt;&lt;/font&gt;" style="rounded=1;whiteSpace=wrap;html=1;shadow=0;labelBackgroundColor=none;strokeWidth=1;fontFamily=Verdana;fontSize=8;align=center;" vertex="1" parent="fKs3vi7BqhOC32A1Lkrl-14">
          <mxGeometry x="360" y="49.99999999999996" width="70" height="37" as="geometry" />
        </mxCell>
        <mxCell id="jYvJ1Jp0yjeoyxlmzkTq-15" value="&lt;font style=&quot;font-size: 12px;&quot;&gt;&lt;b&gt;Nexus Artifactory&lt;/b&gt;&lt;/font&gt;" style="rounded=1;whiteSpace=wrap;html=1;shadow=0;labelBackgroundColor=none;strokeWidth=1;fontFamily=Verdana;fontSize=8;align=center;" vertex="1" parent="fKs3vi7BqhOC32A1Lkrl-14">
          <mxGeometry x="360" y="9.999999999999957" width="70" height="37" as="geometry" />
        </mxCell>
        <mxCell id="jYvJ1Jp0yjeoyxlmzkTq-16" value="&lt;font style=&quot;font-size: 12px;&quot;&gt;&lt;b&gt;Harbor&lt;/b&gt;&lt;/font&gt;" style="rounded=1;whiteSpace=wrap;html=1;shadow=0;labelBackgroundColor=none;strokeWidth=1;fontFamily=Verdana;fontSize=8;align=center;" vertex="1" parent="fKs3vi7BqhOC32A1Lkrl-14">
          <mxGeometry x="360" y="89.99999999999996" width="70" height="37" as="geometry" />
        </mxCell>
        <mxCell id="fKs3vi7BqhOC32A1Lkrl-18" value="Manual Process for CI/CD" style="swimlane;html=1;startSize=20;horizontal=0;" parent="fKs3vi7BqhOC32A1Lkrl-1" vertex="1">
          <mxGeometry y="320" width="680" height="150" as="geometry" />
        </mxCell>
        <mxCell id="fKs3vi7BqhOC32A1Lkrl-19" style="edgeStyle=orthogonalEdgeStyle;rounded=0;html=1;labelBackgroundColor=none;startArrow=none;startFill=0;startSize=5;endArrow=classicThin;endFill=1;endSize=5;jettySize=auto;orthogonalLoop=1;strokeWidth=1;fontFamily=Verdana;fontSize=8;" parent="fKs3vi7BqhOC32A1Lkrl-18" source="fKs3vi7BqhOC32A1Lkrl-20" target="fKs3vi7BqhOC32A1Lkrl-22" edge="1">
          <mxGeometry relative="1" as="geometry" />
        </mxCell>
        <mxCell id="fKs3vi7BqhOC32A1Lkrl-20" value="" style="rounded=1;whiteSpace=wrap;html=1;shadow=0;labelBackgroundColor=none;strokeWidth=1;fontFamily=Verdana;fontSize=8;align=center;" parent="fKs3vi7BqhOC32A1Lkrl-18" vertex="1">
          <mxGeometry x="230" y="57.00000000000003" width="70" height="37" as="geometry" />
        </mxCell>
        <mxCell id="fKs3vi7BqhOC32A1Lkrl-21" value="Yes" style="edgeStyle=orthogonalEdgeStyle;rounded=0;html=1;entryX=0;entryY=0.5;labelBackgroundColor=none;startArrow=none;startFill=0;startSize=5;endArrow=classicThin;endFill=1;endSize=5;jettySize=auto;orthogonalLoop=1;strokeWidth=1;fontFamily=Verdana;fontSize=8" parent="fKs3vi7BqhOC32A1Lkrl-18" source="fKs3vi7BqhOC32A1Lkrl-22" target="fKs3vi7BqhOC32A1Lkrl-24" edge="1">
          <mxGeometry x="-0.5006" y="6" relative="1" as="geometry">
            <mxPoint as="offset" />
          </mxGeometry>
        </mxCell>
        <mxCell id="fKs3vi7BqhOC32A1Lkrl-22" value="" style="strokeWidth=1;html=1;shape=mxgraph.flowchart.decision;whiteSpace=wrap;rounded=1;shadow=0;labelBackgroundColor=none;fontFamily=Verdana;fontSize=8;align=center;" parent="fKs3vi7BqhOC32A1Lkrl-18" vertex="1">
          <mxGeometry x="330" y="60.500000000000064" width="30" height="30" as="geometry" />
        </mxCell>
        <mxCell id="fKs3vi7BqhOC32A1Lkrl-23" style="edgeStyle=orthogonalEdgeStyle;rounded=0;html=1;labelBackgroundColor=none;startArrow=none;startFill=0;startSize=5;endArrow=classicThin;endFill=1;endSize=5;jettySize=auto;orthogonalLoop=1;strokeColor=#000000;strokeWidth=1;fontFamily=Verdana;fontSize=8;fontColor=#000000;" parent="fKs3vi7BqhOC32A1Lkrl-18" source="fKs3vi7BqhOC32A1Lkrl-24" target="fKs3vi7BqhOC32A1Lkrl-25" edge="1">
          <mxGeometry relative="1" as="geometry" />
        </mxCell>
        <mxCell id="fKs3vi7BqhOC32A1Lkrl-24" value="" style="shape=mxgraph.bpmn.shape;html=1;verticalLabelPosition=bottom;labelBackgroundColor=#ffffff;verticalAlign=top;perimeter=rhombusPerimeter;background=gateway;outline=none;symbol=parallelGw;rounded=1;shadow=0;strokeWidth=1;fontFamily=Verdana;fontSize=8;align=center;" parent="fKs3vi7BqhOC32A1Lkrl-18" vertex="1">
          <mxGeometry x="440" y="60.500000000000064" width="30" height="30" as="geometry" />
        </mxCell>
        <mxCell id="fKs3vi7BqhOC32A1Lkrl-25" value="" style="rounded=1;whiteSpace=wrap;html=1;shadow=0;labelBackgroundColor=none;strokeWidth=1;fontFamily=Verdana;fontSize=8;align=center;" parent="fKs3vi7BqhOC32A1Lkrl-18" vertex="1">
          <mxGeometry x="530" y="57" width="70" height="37" as="geometry" />
        </mxCell>
        <mxCell id="fKs3vi7BqhOC32A1Lkrl-26" style="edgeStyle=orthogonalEdgeStyle;rounded=0;html=1;labelBackgroundColor=none;startArrow=none;startFill=0;startSize=5;endArrow=classicThin;endFill=1;endSize=5;jettySize=auto;orthogonalLoop=1;strokeWidth=1;fontFamily=Verdana;fontSize=8" parent="fKs3vi7BqhOC32A1Lkrl-1" source="fKs3vi7BqhOC32A1Lkrl-5" target="fKs3vi7BqhOC32A1Lkrl-16" edge="1">
          <mxGeometry relative="1" as="geometry" />
        </mxCell>
        <mxCell id="fKs3vi7BqhOC32A1Lkrl-30" value="No" style="edgeStyle=orthogonalEdgeStyle;rounded=0;html=1;labelBackgroundColor=none;startArrow=none;startFill=0;startSize=5;endArrow=classicThin;endFill=1;endSize=5;jettySize=auto;orthogonalLoop=1;strokeWidth=1;fontFamily=Verdana;fontSize=8" parent="fKs3vi7BqhOC32A1Lkrl-1" source="fKs3vi7BqhOC32A1Lkrl-22" target="fKs3vi7BqhOC32A1Lkrl-16" edge="1">
          <mxGeometry x="-0.9529" y="15" relative="1" as="geometry">
            <Array as="points">
              <mxPoint x="345" y="440" />
              <mxPoint x="155" y="440" />
            </Array>
            <mxPoint as="offset" />
          </mxGeometry>
        </mxCell>
        <mxCell id="NS4H6OkGsvqJ2kZ-mFsc-1" value="Ops Team" style="swimlane;html=1;startSize=20;horizontal=0;" parent="fKs3vi7BqhOC32A1Lkrl-1" vertex="1">
          <mxGeometry y="470" width="680" height="150" as="geometry" />
        </mxCell>
        <mxCell id="NS4H6OkGsvqJ2kZ-mFsc-2" style="edgeStyle=orthogonalEdgeStyle;rounded=0;html=1;labelBackgroundColor=none;startArrow=none;startFill=0;startSize=5;endArrow=classicThin;endFill=1;endSize=5;jettySize=auto;orthogonalLoop=1;strokeWidth=1;fontFamily=Verdana;fontSize=8" parent="NS4H6OkGsvqJ2kZ-mFsc-1" source="NS4H6OkGsvqJ2kZ-mFsc-3" target="NS4H6OkGsvqJ2kZ-mFsc-4" edge="1">
          <mxGeometry relative="1" as="geometry" />
        </mxCell>
        <mxCell id="NS4H6OkGsvqJ2kZ-mFsc-3" value="" style="ellipse;whiteSpace=wrap;html=1;rounded=0;shadow=0;labelBackgroundColor=none;strokeWidth=1;fontFamily=Verdana;fontSize=8;align=center;" parent="NS4H6OkGsvqJ2kZ-mFsc-1" vertex="1">
          <mxGeometry x="60" y="60" width="30" height="30" as="geometry" />
        </mxCell>
        <mxCell id="NS4H6OkGsvqJ2kZ-mFsc-4" value="" style="rounded=1;whiteSpace=wrap;html=1;shadow=0;labelBackgroundColor=none;strokeWidth=1;fontFamily=Verdana;fontSize=8;align=center;" parent="NS4H6OkGsvqJ2kZ-mFsc-1" vertex="1">
          <mxGeometry x="120" y="56.49999999999997" width="70" height="37" as="geometry" />
        </mxCell>
        <mxCell id="NS4H6OkGsvqJ2kZ-mFsc-5" style="edgeStyle=orthogonalEdgeStyle;rounded=0;html=1;labelBackgroundColor=none;startArrow=none;startFill=0;startSize=5;endArrow=classicThin;endFill=1;endSize=5;jettySize=auto;orthogonalLoop=1;strokeWidth=1;fontFamily=Verdana;fontSize=8" parent="NS4H6OkGsvqJ2kZ-mFsc-1" source="NS4H6OkGsvqJ2kZ-mFsc-6" target="NS4H6OkGsvqJ2kZ-mFsc-7" edge="1">
          <mxGeometry relative="1" as="geometry" />
        </mxCell>
        <mxCell id="NS4H6OkGsvqJ2kZ-mFsc-6" value="" style="rounded=1;whiteSpace=wrap;html=1;shadow=0;labelBackgroundColor=none;strokeWidth=1;fontFamily=Verdana;fontSize=8;align=center;" parent="NS4H6OkGsvqJ2kZ-mFsc-1" vertex="1">
          <mxGeometry x="230" y="56.49999999999997" width="70" height="37" as="geometry" />
        </mxCell>
        <mxCell id="NS4H6OkGsvqJ2kZ-mFsc-7" value="" style="ellipse;whiteSpace=wrap;html=1;rounded=0;shadow=0;labelBackgroundColor=none;strokeWidth=2;fontFamily=Verdana;fontSize=8;align=center;" parent="NS4H6OkGsvqJ2kZ-mFsc-1" vertex="1">
          <mxGeometry x="330" y="60" width="30" height="30" as="geometry" />
        </mxCell>
        <mxCell id="NS4H6OkGsvqJ2kZ-mFsc-8" style="edgeStyle=orthogonalEdgeStyle;rounded=0;html=1;entryX=0;entryY=0.5;labelBackgroundColor=none;startArrow=none;startFill=0;startSize=5;endArrow=classicThin;endFill=1;endSize=5;jettySize=auto;orthogonalLoop=1;strokeWidth=1;fontFamily=Verdana;fontSize=8" parent="NS4H6OkGsvqJ2kZ-mFsc-1" source="NS4H6OkGsvqJ2kZ-mFsc-9" target="NS4H6OkGsvqJ2kZ-mFsc-11" edge="1">
          <mxGeometry relative="1" as="geometry" />
        </mxCell>
        <mxCell id="NS4H6OkGsvqJ2kZ-mFsc-9" value="" style="rounded=1;whiteSpace=wrap;html=1;shadow=0;labelBackgroundColor=none;strokeWidth=1;fontFamily=Verdana;fontSize=8;align=center;" parent="NS4H6OkGsvqJ2kZ-mFsc-1" vertex="1">
          <mxGeometry x="420" y="56.49999999999997" width="70" height="37" as="geometry" />
        </mxCell>
        <mxCell id="NS4H6OkGsvqJ2kZ-mFsc-10" style="edgeStyle=orthogonalEdgeStyle;rounded=0;html=1;labelBackgroundColor=none;startArrow=none;startFill=0;startSize=5;endArrow=classicThin;endFill=1;endSize=5;jettySize=auto;orthogonalLoop=1;strokeWidth=1;fontFamily=Verdana;fontSize=8" parent="NS4H6OkGsvqJ2kZ-mFsc-1" source="NS4H6OkGsvqJ2kZ-mFsc-11" target="NS4H6OkGsvqJ2kZ-mFsc-12" edge="1">
          <mxGeometry relative="1" as="geometry" />
        </mxCell>
        <mxCell id="NS4H6OkGsvqJ2kZ-mFsc-11" value="" style="shape=mxgraph.bpmn.shape;html=1;verticalLabelPosition=bottom;labelBackgroundColor=#ffffff;verticalAlign=top;perimeter=rhombusPerimeter;background=gateway;outline=none;symbol=parallelGw;rounded=1;shadow=0;strokeWidth=1;fontFamily=Verdana;fontSize=8;align=center;" parent="NS4H6OkGsvqJ2kZ-mFsc-1" vertex="1">
          <mxGeometry x="550" y="60" width="30" height="30" as="geometry" />
        </mxCell>
        <mxCell id="NS4H6OkGsvqJ2kZ-mFsc-12" value="" style="ellipse;whiteSpace=wrap;html=1;rounded=0;shadow=0;labelBackgroundColor=none;strokeWidth=2;fontFamily=Verdana;fontSize=8;align=center;" parent="NS4H6OkGsvqJ2kZ-mFsc-1" vertex="1">
          <mxGeometry x="610" y="60" width="30" height="30" as="geometry" />
        </mxCell>
        <mxCell id="NS4H6OkGsvqJ2kZ-mFsc-13" value="Release Manager" style="swimlane;html=1;startSize=20;horizontal=0;" parent="fKs3vi7BqhOC32A1Lkrl-1" vertex="1">
          <mxGeometry y="620" width="680" height="150" as="geometry" />
        </mxCell>
        <mxCell id="NS4H6OkGsvqJ2kZ-mFsc-14" style="edgeStyle=orthogonalEdgeStyle;rounded=0;html=1;labelBackgroundColor=none;startArrow=none;startFill=0;startSize=5;endArrow=classicThin;endFill=1;endSize=5;jettySize=auto;orthogonalLoop=1;strokeWidth=1;fontFamily=Verdana;fontSize=8" parent="NS4H6OkGsvqJ2kZ-mFsc-13" source="NS4H6OkGsvqJ2kZ-mFsc-15" target="NS4H6OkGsvqJ2kZ-mFsc-16" edge="1">
          <mxGeometry relative="1" as="geometry" />
        </mxCell>
        <mxCell id="NS4H6OkGsvqJ2kZ-mFsc-15" value="" style="ellipse;whiteSpace=wrap;html=1;rounded=0;shadow=0;labelBackgroundColor=none;strokeWidth=1;fontFamily=Verdana;fontSize=8;align=center;" parent="NS4H6OkGsvqJ2kZ-mFsc-13" vertex="1">
          <mxGeometry x="60" y="60" width="30" height="30" as="geometry" />
        </mxCell>
        <mxCell id="NS4H6OkGsvqJ2kZ-mFsc-16" value="" style="rounded=1;whiteSpace=wrap;html=1;shadow=0;labelBackgroundColor=none;strokeWidth=1;fontFamily=Verdana;fontSize=8;align=center;" parent="NS4H6OkGsvqJ2kZ-mFsc-13" vertex="1">
          <mxGeometry x="120" y="56.49999999999997" width="70" height="37" as="geometry" />
        </mxCell>
        <mxCell id="NS4H6OkGsvqJ2kZ-mFsc-17" style="edgeStyle=orthogonalEdgeStyle;rounded=0;html=1;labelBackgroundColor=none;startArrow=none;startFill=0;startSize=5;endArrow=classicThin;endFill=1;endSize=5;jettySize=auto;orthogonalLoop=1;strokeWidth=1;fontFamily=Verdana;fontSize=8" parent="NS4H6OkGsvqJ2kZ-mFsc-13" source="NS4H6OkGsvqJ2kZ-mFsc-18" target="NS4H6OkGsvqJ2kZ-mFsc-19" edge="1">
          <mxGeometry relative="1" as="geometry" />
        </mxCell>
        <mxCell id="NS4H6OkGsvqJ2kZ-mFsc-18" value="" style="rounded=1;whiteSpace=wrap;html=1;shadow=0;labelBackgroundColor=none;strokeWidth=1;fontFamily=Verdana;fontSize=8;align=center;" parent="NS4H6OkGsvqJ2kZ-mFsc-13" vertex="1">
          <mxGeometry x="230" y="56.49999999999997" width="70" height="37" as="geometry" />
        </mxCell>
        <mxCell id="NS4H6OkGsvqJ2kZ-mFsc-19" value="" style="ellipse;whiteSpace=wrap;html=1;rounded=0;shadow=0;labelBackgroundColor=none;strokeWidth=2;fontFamily=Verdana;fontSize=8;align=center;" parent="NS4H6OkGsvqJ2kZ-mFsc-13" vertex="1">
          <mxGeometry x="330" y="60" width="30" height="30" as="geometry" />
        </mxCell>
        <mxCell id="NS4H6OkGsvqJ2kZ-mFsc-20" style="edgeStyle=orthogonalEdgeStyle;rounded=0;html=1;entryX=0;entryY=0.5;labelBackgroundColor=none;startArrow=none;startFill=0;startSize=5;endArrow=classicThin;endFill=1;endSize=5;jettySize=auto;orthogonalLoop=1;strokeWidth=1;fontFamily=Verdana;fontSize=8" parent="NS4H6OkGsvqJ2kZ-mFsc-13" source="NS4H6OkGsvqJ2kZ-mFsc-21" target="NS4H6OkGsvqJ2kZ-mFsc-23" edge="1">
          <mxGeometry relative="1" as="geometry" />
        </mxCell>
        <mxCell id="NS4H6OkGsvqJ2kZ-mFsc-21" value="" style="rounded=1;whiteSpace=wrap;html=1;shadow=0;labelBackgroundColor=none;strokeWidth=1;fontFamily=Verdana;fontSize=8;align=center;" parent="NS4H6OkGsvqJ2kZ-mFsc-13" vertex="1">
          <mxGeometry x="420" y="56.49999999999997" width="70" height="37" as="geometry" />
        </mxCell>
        <mxCell id="NS4H6OkGsvqJ2kZ-mFsc-22" style="edgeStyle=orthogonalEdgeStyle;rounded=0;html=1;labelBackgroundColor=none;startArrow=none;startFill=0;startSize=5;endArrow=classicThin;endFill=1;endSize=5;jettySize=auto;orthogonalLoop=1;strokeWidth=1;fontFamily=Verdana;fontSize=8" parent="NS4H6OkGsvqJ2kZ-mFsc-13" source="NS4H6OkGsvqJ2kZ-mFsc-23" target="NS4H6OkGsvqJ2kZ-mFsc-24" edge="1">
          <mxGeometry relative="1" as="geometry" />
        </mxCell>
        <mxCell id="NS4H6OkGsvqJ2kZ-mFsc-23" value="" style="shape=mxgraph.bpmn.shape;html=1;verticalLabelPosition=bottom;labelBackgroundColor=#ffffff;verticalAlign=top;perimeter=rhombusPerimeter;background=gateway;outline=none;symbol=parallelGw;rounded=1;shadow=0;strokeWidth=1;fontFamily=Verdana;fontSize=8;align=center;" parent="NS4H6OkGsvqJ2kZ-mFsc-13" vertex="1">
          <mxGeometry x="550" y="60" width="30" height="30" as="geometry" />
        </mxCell>
        <mxCell id="NS4H6OkGsvqJ2kZ-mFsc-24" value="" style="ellipse;whiteSpace=wrap;html=1;rounded=0;shadow=0;labelBackgroundColor=none;strokeWidth=2;fontFamily=Verdana;fontSize=8;align=center;" parent="NS4H6OkGsvqJ2kZ-mFsc-13" vertex="1">
          <mxGeometry x="610" y="60" width="30" height="30" as="geometry" />
        </mxCell>
      </root>
    </mxGraphModel>
  </diagram>
</mxfile>
